<svg width="150" height="18" viewBox="0 0 150 18" fill="none" xmlns="http://www.w3.org/2000/svg">
<g id="Vector">
<path d="M31.2758 0H34.212L40.8571 13.0971H40.9988L47.5151 0H50.3998V17.0764H47.5151V3.07787H47.425L40.4193 17.0764H39.8269L32.7439 3.19378H32.5508V17.0764H31.2758V0Z" fill="#F2F3F5"/>
<path d="M31.2758 0H34.212L40.8571 13.0971H40.9988L47.5151 0H50.3998V17.0764H47.5151V3.07787H47.425L40.4193 17.0764H39.8269L32.7439 3.19378H32.5508V17.0764H31.2758V0Z" fill="#F2F3F5"/>
<path d="M78.058 17.862C76.7358 17.862 75.4995 17.6259 74.3491 17.1537C73.2072 16.6815 72.2113 16.0376 71.3614 15.2219C70.52 14.3977 69.8546 13.4405 69.3652 12.3501C68.8845 11.2512 68.6441 10.0793 68.6441 8.8344C68.6441 8.01878 68.7514 7.23321 68.966 6.4777C69.1892 5.72218 69.5026 5.01818 69.9061 4.36569C70.3096 3.71319 70.7947 3.1208 71.3614 2.5885C71.9366 2.04762 72.5719 1.5883 73.2673 1.21054C73.9627 0.8242 74.714 0.528003 75.521 0.321953C76.3366 0.107318 77.1823 0 78.058 0C78.9423 0 79.7879 0.107318 80.595 0.321953C81.402 0.528003 82.1532 0.8242 82.8486 1.21054C83.5527 1.5883 84.188 2.04762 84.7546 2.5885C85.3212 3.1208 85.8063 3.71319 86.2098 4.36569C86.6219 5.01818 86.9353 5.72218 87.1499 6.4777C87.3732 7.23321 87.4848 8.01878 87.4848 8.8344C87.4848 9.66718 87.3732 10.4656 87.1499 11.2297C86.9353 11.9938 86.6219 12.7107 86.2098 13.3804C85.8063 14.05 85.3212 14.6596 84.7546 15.2091C84.188 15.7585 83.5527 16.2307 82.8486 16.6257C82.1532 17.0206 81.402 17.3254 80.595 17.54C79.7879 17.7546 78.9423 17.862 78.058 17.862ZM78.058 17.012C79.0367 17.012 79.8996 16.8102 80.6465 16.4067C81.402 15.9946 82.0373 15.4237 82.5525 14.6939C83.0676 13.9642 83.4539 13.1013 83.7115 12.1054C83.9776 11.1095 84.1107 10.0192 84.1107 8.8344C84.1107 7.65819 83.9776 6.58072 83.7115 5.60199C83.4539 4.62325 83.0676 3.78188 82.5525 3.07787C82.0373 2.36528 81.402 1.81582 80.6465 1.42947C79.8996 1.03454 79.0367 0.837079 78.058 0.837079C77.0621 0.837079 76.1864 1.03454 75.4308 1.42947C74.6839 1.81582 74.0529 2.36528 73.5378 3.07787C73.0312 3.78188 72.6492 4.62325 72.3916 5.60199C72.134 6.58072 72.0053 7.65819 72.0053 8.8344C72.0053 10.0192 72.134 11.1095 72.3916 12.1054C72.6492 13.1013 73.0312 13.9642 73.5378 14.6939C74.0529 15.4237 74.6839 15.9946 75.4308 16.4067C76.1864 16.8102 77.0621 17.012 78.058 17.012Z" fill="#F2F3F5"/>
<path d="M105.729 0H111.653C112.675 0 113.572 0.11161 114.344 0.33483C115.117 0.549466 115.761 0.854248 116.276 1.24918C116.791 1.64411 117.178 2.11631 117.435 2.66577C117.701 3.20665 117.834 3.79905 117.834 4.44295C117.834 4.97525 117.731 5.4732 117.525 5.93682C117.328 6.40043 117.045 6.82112 116.675 7.19887C116.315 7.56805 115.877 7.89 115.362 8.16473C114.847 8.43088 114.28 8.64122 113.662 8.79576L119.882 17.0764H116.547L110.61 9.05332H108.601V17.0764H105.729V0ZM108.601 8.19049H110.262C110.906 8.19049 111.498 8.10464 112.039 7.93293C112.589 7.76122 113.061 7.52083 113.456 7.21175C113.859 6.89409 114.173 6.51204 114.396 6.0656C114.619 5.61916 114.731 5.11691 114.731 4.55886C114.731 4.04373 114.641 3.57154 114.46 3.14226C114.289 2.71299 114.04 2.34811 113.713 2.04762C113.396 1.73855 113.014 1.49816 112.567 1.32645C112.129 1.15474 111.649 1.06888 111.125 1.06888H108.601V8.19049Z" fill="#F2F3F5"/>
<path d="M150 0V1.10752H140.998V7.21175H147.025V8.31927H140.998V15.9689H150V17.0764H138.126V0H150Z" fill="#F2F3F5"/>
<path d="M0 0H5.79182V5.74273H0V0Z" fill="#F2F3F5"/>
<path d="M0 0H5.79182V5.74273H0V0Z" fill="#F2F3F5"/>
<path d="M11.5836 0H17.3755V5.74273H11.5836V0Z" fill="#F2F3F5"/>
<path d="M0 11.1983H5.79182V16.9411H0V11.1983Z" fill="#F2F3F5"/>
<path d="M11.5836 11.1983H17.3755V16.9411H11.5836V11.1983Z" fill="#F2F3F5"/>
</g>
</svg>
